<?xml version="1.0" standalone="no"?>
<!DOCTYPE svg PUBLIC "-//W3C//DTD SVG 20010904//EN"
 "http://www.w3.org/TR/2001/REC-SVG-20010904/DTD/svg10.dtd">
<svg version="1.0" xmlns="http://www.w3.org/2000/svg"
 width="300.000000pt" height="300.000000pt" viewBox="0 0 300.000000 300.000000"
 preserveAspectRatio="xMidYMid meet">
<metadata>
Created by potrace 1.10, written by Peter Selinger 2001-2011
</metadata>
<g transform="translate(0.000000,300.000000) scale(0.100000,-0.100000)"
fill="#000000" stroke="none">
<path d="M10 1495 c0 -1369 2 -1514 22 -1492 2 1 5 668 8 1482 l5 1480 1478 3
c973 1 1477 5 1477 12 0 7 -508 10 -1495 10 l-1495 0 0 -1495z"/>
<path d="M1781 2166 c-7 -8 -13 -27 -14 -43 -1 -15 -10 -37 -19 -47 -10 -11
-18 -23 -18 -28 0 -4 -20 -41 -45 -83 -24 -41 -52 -92 -62 -113 -9 -20 -22
-40 -27 -44 -8 -5 -7 -8 0 -8 16 0 194 311 194 339 0 14 6 21 19 21 30 0 35
-19 12 -44 -12 -12 -21 -29 -21 -37 0 -8 -18 -76 -39 -151 -25 -91 -34 -141
-28 -147 14 -14 -12 -43 -33 -36 -23 7 -100 -21 -115 -42 -11 -15 -15 -15 -29
-4 -9 7 -14 17 -11 21 2 4 -24 33 -58 65 -34 32 -84 79 -110 104 l-48 46 19
-45 c10 -25 36 -93 57 -152 21 -60 43 -108 49 -108 7 0 27 16 46 35 19 19 39
35 44 35 6 -1 -8 -18 -31 -39 -24 -21 -43 -43 -43 -49 0 -5 -6 -15 -14 -21
-11 -9 -18 -8 -31 5 -20 20 -204 84 -211 73 -7 -12 -34 1 -34 16 0 17 -90 70
-112 67 -9 -2 -19 1 -22 6 -8 13 -89 -11 -94 -26 -5 -15 -39 -16 -48 -1 -10
17 23 46 37 32 13 -13 74 2 101 24 9 8 22 13 30 11 21 -4 95 29 101 46 4 9 13
16 20 16 21 0 106 80 101 95 -6 15 22 39 36 30 5 -3 10 -14 10 -24 0 -17 201
-213 225 -219 6 -1 16 8 23 22 11 24 10 24 -22 19 -30 -5 -40 1 -110 68 -43
40 -84 88 -91 106 -8 18 -21 36 -30 39 -22 9 -65 -12 -65 -30 0 -20 -49 -76
-67 -76 -16 0 -72 -40 -57 -40 24 -1 -34 -30 -60 -30 -16 0 -37 -6 -45 -13
-25 -21 -89 -37 -94 -23 -3 8 -11 7 -30 -3 -32 -17 -38 -65 -9 -79 19 -11 62
2 62 17 0 14 73 27 78 13 2 -6 17 -8 39 -5 23 4 34 2 30 -4 -4 -5 5 -16 18
-23 14 -7 25 -19 25 -26 0 -16 28 -27 65 -25 38 2 165 -44 185 -67 23 -27 80
-9 80 26 0 21 51 62 77 62 12 0 23 4 25 8 2 4 18 18 36 31 25 17 39 21 60 15
15 -4 30 -7 34 -6 11 2 69 -68 63 -77 -2 -5 5 -17 16 -27 17 -15 24 -16 53 -6
38 14 76 16 76 4 0 -5 13 -7 29 -4 37 5 88 -17 94 -40 6 -22 43 -24 63 -4 16
16 20 71 4 61 -5 -3 -11 2 -11 12 -1 10 -3 34 -5 53 -2 19 1 48 6 63 17 50
-21 89 -60 64 -11 -6 -20 -19 -20 -27 0 -22 -54 -85 -67 -77 -6 4 -16 28 -23
54 -6 27 -16 57 -20 68 -5 11 -11 31 -13 45 -3 14 -15 61 -27 105 -13 44 -24
102 -26 129 -2 27 -9 53 -16 57 -20 13 -44 11 -57 -5z m109 -276 c33 -117 62
-216 64 -218 8 -7 96 94 96 111 0 21 27 34 42 19 6 -6 7 -19 3 -29 -10 -26 -5
-145 7 -160 13 -17 3 -43 -17 -43 -9 0 -18 7 -22 15 -3 9 -22 23 -42 31 -45
19 -171 30 -171 15 0 -6 -9 -11 -20 -11 -13 0 -20 7 -20 18 0 10 -18 36 -40
57 -54 52 -51 70 3 20 53 -50 79 -65 115 -65 34 0 51 15 45 41 -7 25 -23 24
-23 -1 0 -15 -7 -20 -24 -20 -14 0 -28 5 -31 10 -3 6 -13 10 -22 10 -9 0 -30
15 -47 34 -24 26 -32 44 -34 84 -2 27 1 53 7 56 5 4 13 28 17 54 3 26 12 53
18 61 6 7 11 19 12 25 4 37 6 38 17 6 7 -19 23 -75 36 -125 13 -49 28 -94 33
-100 4 -5 8 -19 8 -31 0 -13 5 -26 10 -29 14 -9 15 -14 -40 181 -45 160 -58
215 -46 203 3 -2 32 -101 66 -219z m-460 -73 c4 1 29 -21 56 -49 27 -28 43
-47 35 -43 -11 6 -13 4 -8 -7 9 -24 -27 -52 -58 -44 -18 5 -25 13 -25 31 0 13
-4 26 -9 29 -5 3 -11 16 -14 28 -3 13 -10 41 -16 63 l-10 40 21 -25 c11 -14
24 -24 28 -23z"/>
<path d="M2018 1713 c-27 -27 -48 -52 -48 -55 0 -12 93 -49 102 -40 5 5 5 39
1 76 l-8 67 -47 -48z m40 -23 c3 -47 -19 -64 -46 -35 -9 10 -11 14 -3 10 10
-6 12 -2 6 14 -4 15 -2 21 8 21 8 0 17 7 21 15 8 23 11 19 14 -25z"/>
<path d="M1689 1914 c-52 -91 -95 -170 -97 -174 -2 -5 20 -1 47 8 28 9 51 21
51 28 0 6 7 14 15 18 8 3 15 11 15 19 0 7 15 69 34 138 19 68 33 125 32 126
-1 2 -45 -72 -97 -163z m36 -1 c-9 -22 -15 -44 -14 -49 4 -17 -20 -61 -37 -68
-36 -14 -36 12 1 65 21 30 41 65 46 78 5 13 12 21 15 19 3 -3 -2 -23 -11 -45z"/>
<path d="M1301 1903 c-7 -21 -12 -42 -11 -47 1 -5 -3 -12 -8 -15 -15 -9 -62
-130 -56 -144 4 -10 194 -79 201 -73 3 2 -107 309 -111 314 -2 1 -8 -15 -15
-35z m93 -229 c8 -29 9 -29 -87 4 -64 22 -68 44 -28 128 17 36 31 70 32 77 0
13 73 -169 83 -209z"/>
<path d="M1258 1893 c-20 -21 -38 -47 -40 -58 -2 -14 -11 -20 -28 -20 -34 -1
-100 -27 -100 -40 1 -12 85 -65 105 -65 7 0 18 12 23 28 5 15 26 64 46 110 19
45 34 82 33 82 -2 0 -19 -17 -39 -37z m-50 -127 c-4 -22 -47 -33 -60 -14 -17
27 -8 39 27 36 29 -2 35 -6 33 -22z"/>
<path d="M690 1512 c-25 -2 -53 -10 -62 -19 -11 -10 -29 -14 -48 -11 -17 3
-33 1 -36 -4 -4 -5 -13 0 -21 11 -17 25 -45 27 -63 6 -16 -20 2 -171 20 -160
4 3 10 -2 14 -10 7 -20 23 -19 53 5 25 20 25 20 55 -1 25 -18 33 -19 58 -9 24
10 33 10 45 0 8 -6 19 -9 25 -5 5 3 10 3 10 -2 0 -11 53 -13 66 -2 6 5 26 7
45 4 71 -12 93 -12 130 -1 21 6 41 14 44 18 4 4 7 37 7 74 0 102 -9 108 -169
109 -70 0 -148 -1 -173 -3z m-185 -34 c2 -7 6 -31 10 -52 l7 -40 21 39 c12 21
26 39 32 39 5 1 19 -16 31 -37 20 -36 22 -37 28 -15 3 13 6 35 6 51 0 21 5 27
21 27 15 0 19 -5 15 -17 -3 -10 -10 -45 -15 -77 -6 -33 -13 -61 -15 -64 -9 -8
-27 10 -47 51 -23 45 -24 44 -61 -22 -9 -17 -21 -31 -27 -31 -5 0 -15 26 -21
58 -6 31 -14 67 -17 80 -4 16 -1 22 11 22 9 0 18 -6 21 -12z m335 -3 c0 -12
-13 -15 -55 -15 l-55 0 0 -50 0 -50 55 6 c50 4 55 3 55 -16 0 -17 -6 -20 -51
-20 -80 0 -89 9 -89 90 l0 70 70 0 c56 0 70 -3 70 -15z m156 3 c4 -6 9 -26 10
-42 1 -17 5 -40 9 -52 12 -37 -19 -55 -89 -52 l-61 3 -3 64 c-2 35 -1 70 2 77
7 18 122 19 132 2z m-166 -63 c0 -11 -12 -15 -45 -15 -33 0 -45 4 -45 15 0 11
12 15 45 15 33 0 45 -4 45 -15z"/>
<path d="M890 1409 l0 -50 48 3 c34 2 47 7 47 18 0 10 -13 16 -42 18 -54 4
-62 32 -9 32 21 0 36 6 40 15 4 12 -4 15 -39 15 l-45 0 0 -51z"/>
<path d="M1354 1507 c-9 -5 -27 -6 -41 -2 -36 9 -63 -3 -63 -28 0 -16 -3 -18
-9 -8 -10 16 -81 22 -82 7 0 -6 -4 -1 -9 12 -10 24 -42 30 -57 10 -6 -8 -7
-42 -3 -86 5 -54 12 -76 26 -87 25 -19 27 -19 54 5 28 25 46 25 59 3 8 -15 21
-17 72 -15 35 2 76 10 92 19 16 8 26 10 23 5 -7 -12 16 -22 50 -22 19 0 24 5
24 25 0 16 6 25 15 25 8 0 15 -6 15 -12 0 -9 4 -8 10 2 8 12 10 9 10 -12 0
-25 4 -28 31 -28 25 0 33 6 42 30 12 31 21 37 32 20 3 -5 1 -10 -6 -10 -7 0
-3 -9 9 -20 12 -11 28 -20 36 -20 8 0 18 -4 21 -10 3 -5 19 -10 36 -10 16 0
29 5 29 10 0 6 22 10 49 10 43 0 50 3 53 22 2 14 11 22 26 23 12 1 22 -2 22
-7 0 -19 30 -38 67 -42 21 -3 50 -8 65 -12 15 -3 36 -3 45 2 10 4 23 8 28 9 6
1 20 5 32 9 13 4 32 2 44 -5 32 -16 99 -17 135 -1 28 13 35 12 67 -3 36 -17
61 -17 145 1 21 4 32 2 32 -5 0 -6 17 -11 40 -11 22 0 40 5 40 10 0 6 11 10
25 10 39 0 63 73 32 101 -7 7 -11 26 -9 45 4 29 0 35 -23 44 -33 12 -102 13
-109 1 -4 -5 -12 -8 -19 -7 -6 2 -29 6 -50 11 -23 4 -61 3 -97 -5 -33 -7 -67
-9 -77 -5 -29 12 -112 9 -138 -5 -19 -10 -27 -10 -45 3 -17 12 -41 14 -104 11
-90 -5 -126 -18 -126 -46 0 -20 -7 -16 -49 25 -16 16 -43 18 -260 20 -133 1
-249 -2 -257 -6z m-220 -33 c3 -9 6 -26 6 -39 0 -13 5 -27 10 -30 6 -3 10 -3
10 2 0 4 11 21 23 37 l24 29 26 -43 26 -44 7 52 c5 42 10 52 26 52 10 0 17 -3
15 -7 -3 -5 -10 -41 -17 -80 -8 -51 -16 -73 -26 -73 -8 0 -14 3 -14 8 0 4 -11
24 -23 46 l-24 38 -27 -46 c-40 -68 -45 -65 -65 48 -6 33 -11 61 -11 63 0 11
29 0 34 -13z m344 -66 c2 -65 0 -78 -13 -78 -8 0 -15 9 -15 20 0 17 -7 20 -50
20 -43 0 -50 -3 -50 -20 0 -12 -7 -20 -16 -20 -14 0 -16 10 -12 61 6 80 28
101 102 97 l51 -3 3 -77z m172 67 c0 -10 -10 -15 -32 -15 l-33 0 3 -66 c3 -59
2 -65 -14 -62 -15 3 -17 12 -15 66 l2 62 -35 0 c-25 0 -36 4 -36 15 0 12 16
15 80 15 64 0 80 -3 80 -15z m157 0 c0 -12 -14 -15 -59 -15 l-59 0 3 -47 3
-46 55 -1 c42 -1 55 -5 55 -16 0 -11 -14 -16 -56 -18 -71 -4 -89 11 -89 74 0
73 11 84 84 84 49 0 63 -3 63 -15z m53 -15 c0 -29 2 -30 45 -30 43 0 45 1 45
30 0 20 5 30 15 30 12 0 15 -16 15 -80 0 -64 -3 -80 -15 -80 -10 0 -15 11 -15
35 0 35 0 35 -45 35 -45 0 -45 0 -45 -35 0 -24 -5 -35 -15 -35 -12 0 -15 16
-15 80 0 64 3 80 15 80 10 0 15 -10 15 -30z m289 4 c26 -33 27 -75 2 -105 -16
-20 -28 -23 -77 -24 l-59 0 -3 64 c-4 88 -2 91 62 91 47 0 57 -4 75 -26z m183
9 c13 -11 18 -30 18 -64 0 -56 -23 -79 -80 -79 -56 0 -80 23 -80 77 0 62 20
83 78 83 28 0 52 -6 64 -17z m198 2 c0 -12 -13 -15 -60 -15 l-60 0 0 -48 0
-48 45 -2 c39 -1 45 1 45 18 0 16 -7 20 -35 20 -25 0 -35 4 -35 16 0 12 10 14
48 12 l47 -3 0 -45 0 -45 -52 -3 c-81 -5 -93 6 -93 83 0 41 4 65 13 68 6 3 40
6 75 6 49 1 62 -2 62 -14z m160 1 c0 -11 -15 -16 -52 -18 -66 -4 -80 -28 -16
-28 46 0 88 -22 88 -46 0 -33 -38 -54 -100 -54 -54 0 -60 2 -60 21 0 19 5 21
63 17 50 -2 62 0 62 12 0 11 -14 16 -50 18 -55 4 -75 15 -75 43 0 33 28 49 86
49 40 0 54 -4 54 -14z m-900 -56 l24 -20 -51 1 c-51 2 -51 2 -30 20 28 23 29
23 57 -1z"/>
<path d="M1366 1444 c-31 -30 -20 -44 34 -44 49 0 50 1 50 30 0 28 -3 30 -34
30 -19 0 -42 -7 -50 -16z"/>
<path d="M2040 1410 l0 -49 42 4 c55 5 71 32 48 76 -8 14 -21 19 -50 19 l-40
0 0 -50z"/>
<path d="M2227 1454 c-4 -4 -7 -24 -7 -45 0 -33 4 -40 25 -45 14 -3 37 -3 51
0 23 6 25 11 22 49 -3 41 -4 42 -43 45 -23 2 -44 0 -48 -4z"/>
<path d="M1853 1169 c-14 -14 -233 -39 -322 -38 -36 1 -66 -3 -70 -9 -14 -23
-137 -66 -146 -51 -4 5 -19 2 -36 -6 -41 -22 -40 -58 2 -76 28 -11 33 -11 46
7 8 10 19 18 24 16 5 -1 9 2 9 6 0 14 82 35 125 33 25 -1 56 -13 83 -32 23
-16 45 -29 48 -29 3 0 14 -9 26 -20 12 -11 19 -20 15 -20 -4 0 1 -9 10 -20 10
-11 25 -20 34 -20 19 0 50 31 53 54 3 22 107 127 118 119 12 -6 58 36 58 53 0
14 -38 44 -55 44 -6 0 -16 -5 -22 -11z m50 -23 c6 -15 -10 -36 -28 -36 -14 0
-134 -121 -148 -150 -16 -30 -37 -37 -43 -14 -3 11 -41 43 -86 72 -44 29 -78
56 -75 59 3 3 41 -19 85 -49 58 -40 84 -53 98 -47 10 4 50 39 89 78 65 67 68
71 40 66 -54 -9 -223 -25 -269 -25 -31 0 -46 -5 -50 -16 -4 -11 -13 -14 -27
-11 -26 7 -158 -38 -174 -59 -15 -22 -48 -11 -43 13 2 11 13 18 28 18 37 1
164 46 173 62 6 10 18 12 36 8 36 -8 343 23 355 35 14 14 33 12 39 -4z m-118
-73 c-14 -15 -25 -30 -25 -33 0 -10 -54 -36 -72 -35 -26 0 -96 46 -101 65 -4
14 6 17 62 19 36 1 68 4 70 7 2 2 24 4 48 4 l44 0 -26 -27z"/>
</g>
</svg>
